<svg xmlns="http://www.w3.org/2000/svg" xmlns:xlink="http://www.w3.org/1999/xlink" width="48" height="48" id="maintenance"><defs><linearGradient id="b" x1="992.183" x2="1019.298" y1="516.081" y2="545.959" gradientTransform="translate(-1522.705 211.343) scale(1.53785)" gradientUnits="userSpaceOnUse" xlink:href="#a"></linearGradient><linearGradient id="a"><stop offset="0" stop-color="#ff1679"></stop><stop offset="1" stop-color="#ff770b"></stop></linearGradient></defs><g transform="translate(0 -1004.362)"><rect width="48" height="48" y="1004.362" fill="url(#b)" rx="10.144" ry="10.144"></rect><path style="line-height:normal;-inkscape-font-specification:Sans;text-indent:0;text-align:start;text-decoration-line:none;text-transform:none;block-progression:tb;marker:none" fill="#fff" d="M33.863 1015.32a.5.5 0 0 0-.25.126l-1.688 1.687a.5.5 0 0 0-.062.062l-1.313 1.313-1.281-1.281a.5.5 0 0 0-.406-.157.5.5 0 0 0-.282.157l-6.093 6.093-2.657-2.656c.247-1.393-.079-2.892-1.156-3.969a4.47 4.47 0 0 0-4.344-1.156l-.812.219.594.625 2.218 2.219-.5 1.562-1.625.563-2.218-2.22-.594-.624-.219.844a4.501 4.501 0 0 0 1.156 4.343c1.086 1.085 2.567 1.415 3.97 1.157l4.28 4.25-7.125 7.125a.5.5 0 0 0 0 .687l.282.281-1.407 1.407a.5.5 0 0 0 0 .687l.375.375-1.687 1.688.719.687 1.687-1.656.375.375a.5.5 0 0 0 .719 0l1.375-1.406.062.062a.5.5 0 0 0 .72 0l7.093-7.094 4.375 4.375c-.248 1.394.078 2.89 1.156 3.969a4.502 4.502 0 0 0 4.344 1.156l.812-.219-.593-.625-2.219-2.219.531-1.593 1.594-.532 2.219 2.22.593.624.25-.844c.416-1.55-.051-3.208-1.187-4.343-1.093-1.093-2.59-1.427-4-1.157l-4.344-4.375a.5.5 0 0 0 .031-.03l.344-.313 7.406-7.407a.5.5 0 0 0 .094-.094l1.625-1.625a.5.5 0 0 0 0-.718l-2.5-2.5a.5.5 0 0 0-.437-.125zm-18.313 1.063c.902.01 1.782.377 2.438 1.032.915.915 1.184 2.205.875 3.375l-.063.28.188.188 2.5 2.5c-.085.174-.185.367-.157.532.043.243.162.411.313.562.151.151.35.27.594.313.161.028.328-.075.5-.157l.656.657-2.125 2.125-4.375-4.407-.219-.218-.281.094c-1.17.309-2.46.01-3.375-.907-.631-.633-.874-1.475-.906-2.343l1.625 1.656.218.187.282-.094 2.125-.687.25-.094.062-.219.719-2.125.094-.312-.219-.22-1.719-1.718zm18.406.125 1.782 1.782-1.032 1.03-1.78-1.78 1.03-1.032zm-1.718 1.75 1.781 1.782-.969.968-1.781-1.78.969-.97zm-3.313.031.938.906-5.375 5.375-.282.282a.5.5 0 0 0-.03.03l-.063.063-.938-.906 5.75-5.75zm1.656 1.625 1.782 1.781-5.313 5.313-1.781-1.781 5.312-5.313zm-6.03 6 1.78 1.781-10.03 10.032-1.782-1.782 10.031-10.03zm2.03 2.938h.032l4.5 4.5.187.218.281-.094c1.17-.309 2.46-.01 3.375.907.632.631.874 1.475.907 2.343l-1.625-1.625-.219-.218-.281.094-2.125.718-.25.062-.063.25-.719 2.125-.093.282.218.218 1.594 1.594c-.85-.044-1.691-.287-2.312-.906-.915-.915-1.184-2.175-.875-3.344l.062-.281-.187-.219-4.5-4.5 2.093-2.125zm-12.218 8.5.75.75-.969.968-.75-.75.969-.968z" color="#000" font-family="Sans" font-weight="400" overflow="visible"></path></g></svg>